<?xml version="1.0" encoding="UTF-8" standalone="no"?>
<svg
   xmlns:dc="http://purl.org/dc/elements/1.1/"
   xmlns:cc="http://creativecommons.org/ns#"
   xmlns:rdf="http://www.w3.org/1999/02/22-rdf-syntax-ns#"
   xmlns:svg="http://www.w3.org/2000/svg"
   xmlns="http://www.w3.org/2000/svg"
   version="1.0"
   id="svg2"
   height="1415"
   width="2085">
  <defs
     id="defs4" />
  <metadata
     id="metadata7">
    <rdf:RDF>
      <cc:Work
         rdf:about="">
        <dc:format>image/svg+xml</dc:format>
        <dc:type
           rdf:resource="http://purl.org/dc/dcmitype/StillImage" />
        <dc:title></dc:title>
      </cc:Work>
    </rdf:RDF>
  </metadata>
  <g
     style="display:inline"
     transform="translate(638.4272,343.0539)"
     id="layer1">
    <g
       transform="translate(-814.7791,-393.4649)"
       id="g1924">
      <path
         style="fill:#60b4ad;fill-opacity:1;stroke:#000000;stroke-width:2.5;stroke-miterlimit:4;stroke-opacity:1"
         d="M 195.96992,376.64693 H 2114.0942 V 1453.9976 H 195.96992 Z"
         id="rect14276" />
      <path
         style="fill:#468d67;fill-opacity:1;stroke:#000000;stroke-width:2.5;stroke-miterlimit:4;stroke-opacity:1"
         d="M 836.74054,376.64693 H 2114.0942 V 1094.0006 H 836.74054 Z"
         id="rect12504" />
      <path
         style="fill:#c79663;fill-opacity:1;stroke:#000000;stroke-width:2.42152762;stroke-miterlimit:4;stroke-opacity:1"
         d="m 1396.2565,376.60769 h 717.8769 v 573.42835 h -717.8769 z"
         id="rect4533" />
      <path
         style="font-style:normal;font-variant:normal;font-weight:normal;font-stretch:normal;font-size:4.43954802px;line-height:125%;font-family:'Myriad Pro';text-align:start;writing-mode:lr-tb;text-anchor:start"
         d="m 862.97837,1029.33 v 2.92 h 12.72003 v 0.08 l -11.23997,23 h 3.60001 l 11.31998,-23.68 v -2.32 h -16.40005 m 36.66689,26 v -2.92 h -11.64002 v -0.08 l 2.04003,-1.92 c 5.48002,-5.28 8.96001,-9.16 8.96001,-13.96 0,-3.72 -2.35997,-7.56 -7.91999,-7.56 -3.00004,0 -5.60003,1.16 -7.36003,2.64 l 1.12002,2.48 c 1.20003,-1 3.15996,-2.2 5.52002,-2.2 3.87995,0 5.11998,2.4401 5.11998,5.0801 0,3.9199 -3.04004,7.2799 -9.67999,13.5999 l -2.76001,2.68 v 2.16 h 16.59998 m 12.26692,0.44 c 5.67995,0 9.00002,-4.88 9.00002,-13.72 0,-8.28 -3.16006,-13.16 -8.60007,-13.16 -5.28,0 -9.07993,4.76 -9.07993,13.52 0.0799,8.6 3.56,13.36 8.63998,13.36 h 0.04 m 0.12001,-2.72 c -3.24006,0 -5.32,-4.08 -5.23999,-10.8399 0,-6.5201 2.07994,-10.6001 5.28,-10.6001 3.67992,0 5.27999,4.2 5.27999,10.6001 0,6.6399 -1.72008,10.8399 -5.27999,10.8399 h -0.04 m 13.22684,10.2 h 3.52 v -10.52 h 0.08 c 1.16003,1.92 3.35998,3.04 5.95998,3.04 4.52001,0 8.79999,-3.44 8.79999,-10.4 0,-5.88 -3.52,-9.84 -8.23994,-9.84 -3.12004,0 -5.44001,1.3601 -6.84006,3.76 h -0.08 l -0.19993,-3.32 h -3.16005 c 0.12001,1.84 0.16001,3.84 0.16001,6.32 v 20.96 m 3.52,-19.16 c 0,-0.44 0.12001,-0.96 0.20002,-1.4 0.67998,-2.68 2.95994,-4.36 5.36001,-4.36 3.71993,0 5.71995,3.32 5.71995,7.2 0,4.44 -2.15995,7.48 -5.87997,7.48 -2.47998,0 -4.64002,-1.68 -5.23999,-4.12 -0.12001,-0.44 -0.16002,-0.96 -0.16002,-1.44 v -3.36"
         id="flowRoot4063" />
      <path
         style="fill:none;fill-opacity:0.75;fill-rule:evenodd;stroke:#000000;stroke-width:2.5;stroke-linecap:butt;stroke-linejoin:miter;stroke-miterlimit:4;stroke-opacity:1"
         d="m 195.80465,325.40146 v 49.1189"
         id="path4097" />
      <path
         style="fill:none;fill-opacity:0.75;fill-rule:evenodd;stroke:#000000;stroke-width:2.5;stroke-linecap:butt;stroke-linejoin:miter;stroke-miterlimit:4;stroke-opacity:1"
         d="m 836.43833,325.39156 v 49.1189"
         id="path4099" />
      <path
         style="fill:none;fill-opacity:0.75;fill-rule:evenodd;stroke:#000000;stroke-width:2.5;stroke-linecap:butt;stroke-linejoin:miter;stroke-miterlimit:4;stroke-opacity:1"
         d="m 2113.9538,325.32106 v 49.1189"
         id="path4105" />
      <path
         style="fill:none;fill-opacity:0.75;fill-rule:evenodd;stroke:#000000;stroke-width:2.5;stroke-linecap:butt;stroke-linejoin:miter;stroke-miterlimit:4;stroke-opacity:1"
         d="m 2165.7808,377.17816 h -49.119"
         id="path4107" />
      <path
         style="fill:none;fill-opacity:0.75;fill-rule:evenodd;stroke:#000000;stroke-width:2.5;stroke-linecap:butt;stroke-linejoin:miter;stroke-miterlimit:4;stroke-opacity:1"
         d="m 2165.5816,854.35477 h -49.119"
         id="path4115" />
      <path
         style="fill:none;fill-opacity:0.75;fill-rule:evenodd;stroke:#000000;stroke-width:2.5;stroke-linecap:butt;stroke-linejoin:miter;stroke-miterlimit:4;stroke-opacity:1"
         d="m 2165.6953,950.5822 h -49.119"
         id="path4117" />
      <path
         style="fill:none;fill-opacity:0.75;fill-rule:evenodd;stroke:#000000;stroke-width:2.5;stroke-linecap:butt;stroke-linejoin:miter;stroke-miterlimit:4;stroke-opacity:1"
         d="m 2165.5647,1094.4517 h -49.119"
         id="path4119" />
      <path
         style="fill:none;fill-opacity:0.75;fill-rule:evenodd;stroke:#000000;stroke-width:2.5;stroke-linecap:butt;stroke-linejoin:miter;stroke-miterlimit:4;stroke-opacity:1"
         d="m 2165.5985,1454.6693 h -49.119"
         id="path4121" />
      <path
         style="font-style:normal;font-variant:normal;font-weight:normal;font-stretch:normal;font-size:4.43954802px;line-height:125%;font-family:'Myriad Pro';text-align:start;writing-mode:lr-tb;text-anchor:start"
         d="m 208.79187,306.22733 v -3.39998 h -26.00004 v 2.99994 l 3.04004,5.68004 2.68,-0.68007 -2.44007,-4.51992 v -0.08 h 22.72007 m 0.39995,-14.94692 c 0.04,-0.79999 -0.04,-1.96002 -0.20002,-3.23997 -0.31995,-2.80002 -1.55998,-5.56003 -3.48,-7.56005 -2.47998,-2.55999 -6.47994,-4.47992 -12.19998,-4.47992 -6.67996,0 -10.95994,3.27998 -10.95994,8.59998 0,5.32 4.31999,8.92 9.19994,8.92 4.48001,0 8.00001,-3.00003 8.00001,-7.68006 0,-2.63999 -1.04002,-4.71994 -2.80002,-6.15999 v -0.12001 c 3.08004,0.48004 5.32,1.72008 6.91998,3.44007 1.40006,1.47998 2.24005,3.39999 2.48008,5.43993 0.15992,1.20003 0.19993,2.08003 0.15992,2.84002 h 2.88003 m -24.15994,-6.40002 c 0,-3.67993 3.35998,-5.35992 7.83999,-5.32 0.55996,0 0.96,0.12001 1.27995,0.28002 1.55998,0.96001 2.72,2.80002 2.72,5.15999 0,3.04004 -2.27996,5.00006 -5.52002,5.00006 -3.67992,0 -6.31992,-2.12004 -6.31992,-5.08007 v -0.04 m 23.75999,-28.7068 h -2.92003 v 11.63992 h -0.08 l -1.92002,-2.03993 c -5.27999,-5.48002 -9.15994,-8.96001 -13.95997,-8.96001 -3.72002,0 -7.55996,2.35997 -7.55996,7.91999 0,3.00004 1.15993,5.60003 2.64,7.36003 l 2.47998,-1.12002 c -1.00001,-1.20004 -2.20005,-3.16006 -2.20005,-5.52003 0,-3.87994 2.44007,-5.11998 5.08007,-5.11998 3.91995,0 7.27993,3.04004 13.59994,9.68 l 2.68001,2.76001 h 2.16004 V 256.1736 m 0.43995,-12.26692 c 0,-5.67995 -4.87996,-9.00002 -13.71996,-9.00002 -8.28003,0 -13.15998,3.16005 -13.15998,8.60007 0,5.27999 4.75994,9.07993 13.51993,9.07993 8.59998,-0.08 13.36001,-3.56 13.36001,-8.63998 v -0.04 m -2.72001,-0.12002 c 0,3.24006 -4.07996,5.32001 -10.83993,5.24 -6.52003,0 -10.60009,-2.07994 -10.60009,-5.28 0,-3.67992 4.20007,-5.28 10.60009,-5.28 6.63996,0 10.83993,1.72 10.83993,5.28 v 0.04"
         id="flowRoot4123" />
      <path
         style="font-style:normal;font-variant:normal;font-weight:normal;font-stretch:normal;font-size:4.43954802px;line-height:125%;font-family:'Myriad Pro';text-align:start;writing-mode:lr-tb;text-anchor:start"
         d="m 849.33287,306.22733 v -3.39998 h -26.00004 v 2.99994 l 3.04004,5.68004 2.68,-0.68007 -2.44007,-4.51992 v -0.08 h 22.72007 m 0,-29.50687 h -2.92003 v 11.64001 h -0.08 l -1.92002,-2.04003 c -5.27999,-5.48001 -9.15994,-8.96001 -13.95997,-8.96001 -3.72002,0 -7.55996,2.35997 -7.55996,7.92 0,3.00003 1.15993,5.60003 2.64,7.36003 l 2.47998,-1.12003 c -1.00001,-1.20003 -2.20005,-3.15996 -2.20005,-5.52002 0,-3.87994 2.44007,-5.11998 5.08007,-5.11998 3.91995,0 7.27993,3.04004 13.59994,9.67999 l 2.68001,2.76001 h 2.16004 V 276.72047 M 822.89289,264.0936 c 0,4.55992 2.79992,8.04 6.91998,8.04 2.23996,0 4.48001,-1.24003 5.83996,-4.16006 h 0.12002 c 1.35995,3.16005 3.72001,5.12007 6.99999,5.12007 3.80002,0 6.99999,-3.28006 6.99999,-8.72008 0,-4.95996 -2.99995,-8.83999 -7.55996,-8.83999 -3.12005,0 -5.44001,2.00002 -6.72005,5.23999 h -0.12001 c -1.47997,-3.19997 -3.87995,-4.31999 -6.07999,-4.31999 -3.27998,0 -6.39993,2.55999 -6.39993,7.60005 v 0.04 m 24.31995,0.23993 c 0,3.28006 -2.31997,5.28 -4.91996,5.16007 -2.48007,0 -4.52001,-1.64007 -5.40001,-4.68002 1.00001,-3.52 2.55999,-5.72004 5.67995,-5.72004 2.68,0 4.64002,2.04002 4.64002,5.19999 v 0.04 m -21.79997,-0.11992 c 0,-3.12005 2.15995,-4.36009 4.23998,-4.36009 2.35997,0 3.95996,1.72009 4.72003,3.96005 -0.79999,3.00003 -2.20004,4.99997 -4.80003,4.95996 -2.23996,0 -4.15998,-1.59998 -4.15998,-4.52001 v -0.0399 m 24.35996,-20.30693 c 0,-5.67995 -4.87996,-9.00002 -13.71996,-9.00002 -8.28003,0 -13.15998,3.16005 -13.15998,8.60007 0,5.27999 4.75994,9.07993 13.51993,9.07993 8.59998,-0.08 13.36001,-3.56 13.36001,-8.63998 v -0.04 m -2.72001,-0.12002 c 0,3.24006 -4.07996,5.32001 -10.83993,5.24 -6.52003,0 -10.60009,-2.07994 -10.60009,-5.28 0,-3.67992 4.20007,-5.28 10.60009,-5.28 6.63996,0 10.83993,1.72 10.83993,5.28 v 0.04"
         id="flowRoot4131" />
      <path
         style="font-style:normal;font-variant:normal;font-weight:normal;font-stretch:normal;font-size:4.43954802px;line-height:125%;font-family:'Myriad Pro';text-align:start;writing-mode:lr-tb;text-anchor:start"
         d="m 2128.5778,302.41826 c 0,-5.67994 -4.88,-8.99992 -13.72,-8.99992 -8.28,0 -13.1599,3.15996 -13.1599,8.59997 0,5.28 4.7599,9.08003 13.5199,9.08003 8.6,-0.08 13.36,-3.56001 13.36,-8.64007 v -0.04 m -2.72,-0.11992 c 0,3.23997 -4.08,5.32 -10.8399,5.23999 -6.5201,0 -10.6001,-2.08003 -10.6001,-5.27999 0,-3.68002 4.2,-5.28 10.6001,-5.28 6.6399,0 10.8399,1.72 10.8399,5.28 v 0.04"
         id="flowRoot4155" />
      <path
         style="font-style:normal;font-variant:normal;font-weight:normal;font-stretch:normal;font-size:4.43954802px;line-height:125%;font-family:'Myriad Pro';text-align:start;writing-mode:lr-tb;text-anchor:start"
         d="m 2188.0914,390.38596 c 5.68,0 9,-4.87995 9,-13.71995 0,-8.28004 -3.16,-13.15999 -8.6,-13.15999 -5.28,0 -9.08,4.75994 -9.08,13.51993 0.08,8.59998 3.56,13.36001 8.64,13.36001 h 0.04 m 0.12,-2.72001 c -3.24,0 -5.32,-4.07996 -5.24,-10.83993 0,-6.52003 2.08,-10.60009 5.28,-10.60009 3.68,0 5.28,4.20007 5.28,10.60009 0,6.63996 -1.72,10.83993 -5.28,10.83993 h -0.04"
         id="flowRoot4167" />
      <path
         style="font-style:normal;font-variant:normal;font-weight:normal;font-stretch:normal;font-size:4.43954802px;line-height:125%;font-family:'Myriad Pro';text-align:start;writing-mode:lr-tb;text-anchor:start"
         d="m 2192.2914,865.94597 v -7.12 h 3.64 v -2.72 h -3.64 v -16.16 h -3.8 l -11.6,16.6 v 2.28 h 12.08 v 7.12 h 3.32 m -11.84,-9.84 v -0.08 l 6.36,-8.84 c 0.72,-1.2 1.36,-2.32 2.16,-3.84 h 0.1201 c -0.08,1.36 -0.1201,2.72 -0.1201,4.08 v 8.68 h -8.52 m 26.8669,-16.6 c -4.5601,0 -8.04,2.8 -8.04,6.92 0,2.24 1.24,4.48 4.16,5.84 v 0.12 c -3.16,1.36 -5.1201,3.72 -5.1201,7 0,3.8 3.2801,7 8.7201,7 4.96,0 8.84,-3 8.84,-7.56 0,-3.12 -2,-5.44 -5.2401,-6.72 v -0.12 c 3.2001,-1.48 4.3201,-3.88 4.3201,-6.08 0,-3.28 -2.5601,-6.4 -7.6,-6.4 h -0.04 m -0.24,24.32 c -3.28,0 -5.2801,-2.32 -5.16,-4.92 0,-2.48 1.64,-4.52 4.68,-5.4 3.52,1 5.72,2.56 5.72,5.68 0,2.68 -2.04,4.64 -5.2001,4.64 h -0.04 m 0.1199,-21.8 c 3.1201,0 4.36,2.16 4.36,4.24 0,2.36 -1.72,3.96 -3.9599,4.72 -3,-0.7999 -5,-2.2 -4.96,-4.8 0,-2.24 1.6,-4.16 4.5199,-4.16 h 0.04 m 20.307,24.36 c 5.6799,0 9,-4.88 9,-13.72 0,-8.28 -3.1601,-13.16 -8.6001,-13.16 -5.28,0 -9.0799,4.76 -9.0799,13.52 0.08,8.6 3.56,13.36 8.64,13.36 h 0.04 m 0.12,-2.72 c -3.2401,0 -5.32,-4.08 -5.24,-10.8399 0,-6.5201 2.0799,-10.6001 5.28,-10.6001 3.6799,0 5.28,4.2 5.28,10.6001 0,6.6399 -1.7201,10.8399 -5.28,10.8399 h -0.04"
         id="flowRoot4175" />
      <path
         style="font-style:normal;font-variant:normal;font-weight:normal;font-stretch:normal;font-size:4.43954802px;line-height:125%;font-family:'Myriad Pro';text-align:start;writing-mode:lr-tb;text-anchor:start"
         d="m 2193.7314,931.946 h -12.44 l -1.68,12.48 c 0.96,-0.16 2.12,-0.28 3.64,-0.28 5.16,0 7.44,2.4 7.44,5.72 0.04,3.52 -2.84,5.68 -6.12,5.68 -2.3999,0 -4.52,-0.8 -5.6,-1.44 l -0.88,2.68 c 1.28,0.8 3.64,1.6 6.48,1.6 5.64,0 9.68,-3.8 9.68,-8.88 0,-3.28 -1.68,-5.56 -3.72,-6.68 -1.6,-0.96 -3.56,-1.4 -5.6,-1.4 -0.96,0 -1.52,0.08 -2.12,0.16 l 1,-6.68 h 9.92 v -2.96 m 5.5069,0 v 2.92 h 12.72 v 0.08 l -11.24,23 h 3.6 l 11.32,-23.68 v -2.32 h -16.4 m 34.9068,-0.3999 c -0.64,0 -1.52,0.0399 -2.56,0.1999 -3.2799,0.4 -6.16,1.72 -8.3199,3.84 -2.6,2.56 -4.4,6.6001 -4.4,11.72 0,6.76 3.64,11.08 9.1599,11.08 5.44,0 8.68,-4.4 8.68,-9.2 0,-5.04 -3.24,-8.4 -7.84,-8.4 -2.8799,0 -5.0799,1.3601 -6.32,3.04 h -0.08 c 0.6,-4.3199 3.48,-8.32 9.0399,-9.2 1,-0.16 1.92,-0.24 2.64,-0.2 v -2.8799 m -6.08,24.1199 c -3.68,0 -5.6799,-3.2 -5.7199,-7.48 0,-0.64 0.16,-1.12 0.3599,-1.52 0.96,-1.92 2.9601,-3.2 5.0801,-3.2 3.24,0 5.3599,2.2401 5.3599,5.96 0,3.72 -2.0399,6.24 -5.04,6.24 h -0.04"
         id="flowRoot4183" />
      <path
         style="font-style:normal;font-variant:normal;font-weight:normal;font-stretch:normal;font-size:4.43954802px;line-height:125%;font-family:'Myriad Pro';text-align:start;writing-mode:lr-tb;text-anchor:start"
         d="m 2176.8914,1079.946 v 2.92 h 12.72 v 0.08 l -11.24,23 h 3.6 l 11.32,-23.68 v -2.32 h -16.4 m 36.6669,26 v -2.92 h -11.6401 v -0.08 l 2.0401,-1.92 c 5.48,-5.28 8.96,-9.16 8.96,-13.96 0,-3.72 -2.36,-7.56 -7.92,-7.56 -3,0 -5.6,1.16 -7.36,2.64 l 1.12,2.48 c 1.2,-1 3.1599,-2.2 5.52,-2.2 3.8799,0 5.12,2.4401 5.12,5.0801 0,3.9199 -3.0401,7.2799 -9.68,13.5999 l -2.76,2.68 v 2.16 h 16.6 m 12.2669,0.44 c 5.6799,0 9,-4.88 9,-13.72 0,-8.28 -3.1601,-13.16 -8.6001,-13.16 -5.28,0 -9.0799,4.76 -9.0799,13.52 0.08,8.6 3.56,13.36 8.64,13.36 h 0.04 m 0.12,-2.72 c -3.2401,0 -5.32,-4.08 -5.24,-10.8399 0,-6.5201 2.0799,-10.6001 5.28,-10.6001 3.6799,0 5.28,4.2 5.28,10.6001 0,6.6399 -1.7201,10.8399 -5.28,10.8399 h -0.04"
         id="flowRoot4191" />
      <path
         style="font-style:normal;font-variant:normal;font-weight:normal;font-stretch:normal;font-size:4.43954802px;line-height:125%;font-family:'Myriad Pro';text-align:start;writing-mode:lr-tb;text-anchor:start"
         d="m 2182.1714,1465.946 h 3.4 v -26 h -3 l -5.68,3.04 0.6801,2.68 4.5199,-2.44 h 0.08 v 22.72 m 21.2269,0.44 c 5.68,0 8.9999,-4.88 8.9999,-13.72 0,-8.28 -3.1599,-13.16 -8.5999,-13.16 -5.28,0 -9.0801,4.76 -9.0801,13.52 0.08,8.6 3.56,13.36 8.6401,13.36 h 0.04 m 0.12,-2.72 c -3.24,0 -5.32,-4.08 -5.2401,-10.8399 0,-6.5201 2.0801,-10.6001 5.28,-10.6001 3.6801,0 5.2801,4.2 5.2801,10.6001 0,6.6399 -1.7201,10.8399 -5.2801,10.8399 h -0.04 m 20.7868,-24.16 c -4.5599,0 -8.04,2.8 -8.04,6.92 0,2.24 1.2401,4.48 4.1601,5.84 v 0.12 c -3.1601,1.36 -5.1201,3.72 -5.1201,7 0,3.8 3.2801,7 8.7201,7 4.96,0 8.84,-3 8.84,-7.56 0,-3.12 -2,-5.44 -5.24,-6.72 v -0.12 c 3.2,-1.48 4.32,-3.88 4.32,-6.08 0,-3.28 -2.56,-6.4 -7.6001,-6.4 h -0.04 m -0.2399,24.32 c -3.2801,0 -5.28,-2.32 -5.1601,-4.92 0,-2.48 1.6401,-4.52 4.68,-5.4 3.52,1 5.7201,2.56 5.7201,5.68 0,2.68 -2.04,4.64 -5.2,4.64 h -0.04 m 0.1199,-21.8 c 3.1201,0 4.3601,2.16 4.3601,4.24 0,2.36 -1.7201,3.96 -3.96,4.72 -3.0001,-0.7999 -5,-2.2 -4.96,-4.8 0,-2.24 1.6,-4.16 4.52,-4.16 h 0.04 m 20.3069,24.36 c 5.68,0 9.0001,-4.88 9.0001,-13.72 0,-8.28 -3.1601,-13.16 -8.6001,-13.16 -5.28,0 -9.0799,4.76 -9.0799,13.52 0.08,8.6 3.56,13.36 8.6399,13.36 h 0.04 m 0.1201,-2.72 c -3.2401,0 -5.32,-4.08 -5.24,-10.8399 0,-6.5201 2.0799,-10.6001 5.28,-10.6001 3.6799,0 5.28,4.2 5.28,10.6001 0,6.6399 -1.72,10.8399 -5.28,10.8399 h -0.04"
         id="flowRoot4199" />
      <path
         style="font-style:normal;font-variant:normal;font-weight:bold;font-stretch:normal;font-size:8.87909603px;line-height:125%;font-family:'Myriad Pro Light';text-align:start;writing-mode:lr-tb;text-anchor:start"
         d="m 622.06443,105.93098 c -2.64,1.12003 -6.80006,1.92002 -10.72001,1.92002 -11.92004,0 -18.80002,-7.52005 -18.80002,-19.35999 0,-12.96006 7.92,-19.84004 18.88003,-19.84004 4.4,0 8,0.96001 10.56,2.08003 l 2.07994,-7.83998 c -1.99994,-1.04002 -6.55995,-2.32006 -13.03998,-2.32006 -16.47996,0 -28.87997,10.64 -28.87997,28.40001 0,16.39996 10.39998,27.11997 27.52001,27.11997 6.55995,0 11.68002,-1.27996 13.99999,-2.39998 l -1.59999,-7.75998 m 26.71119,10.23996 c 9.84001,0 19.92005,-6.40002 19.92005,-20.71994 0,-11.84004 -7.75998,-20.00006 -19.35999,-20.00006 -11.76003,0 -20.15998,7.84008 -20.15998,20.64003 0,12.56002 8.55997,20.07997 19.52,20.07997 h 0.0799 m 0.16002,-7.12 c -5.83997,0 -9.59999,-5.67995 -9.59999,-13.19999 0,-6.47994 2.80002,-13.28 9.76,-13.28 6.71997,0 9.43997,7.03999 9.43997,13.12007 0,7.91991 -3.91995,13.35992 -9.51998,13.35992 h -0.08 m 27.87626,6.24 h 9.59998 v -23.04 c 0,-1.11993 0.16002,-2.23996 0.48005,-3.27997 0.96001,-2.64 3.43999,-5.52002 7.12001,-5.52002 4.56001,0 6.71996,3.84003 6.71996,9.28004 v 22.55995 h 9.59999 V 91.931 c 0,-1.12003 0.16001,-2.40007 0.48004,-3.28006 1.04002,-2.79993 3.52,-5.19999 6.87998,-5.19999 4.72003,0 6.95999,3.84003 6.95999,10.32006 v 21.51993 h 9.59999 V 92.33095 c 0,-12.47992 -6.55995,-16.88001 -12.95997,-16.88001 -3.27997,0 -5.76005,0.80008 -8,2.32006 -1.76,1.11993 -3.35999,2.72001 -4.72003,4.87996 h -0.16002 c -1.67999,-4.31999 -5.67995,-7.20002 -10.79993,-7.20002 -6.64004,0 -10.16004,3.60001 -12.00005,6.64005 h -0.23993 l -0.48005,-5.76005 h -8.39996 c 0.15993,3.36007 0.31995,7.12001 0.31995,11.60001 v 27.35999 m 67.81248,0 h 9.59999 v -23.04 c 0,-1.11993 0.16002,-2.23996 0.48005,-3.27997 0.96001,-2.64 3.43999,-5.52002 7.12,-5.52002 4.56002,0 6.71997,3.84003 6.71997,9.28004 v 22.55995 h 9.59998 V 91.931 c 0,-1.12003 0.16002,-2.40007 0.48005,-3.28006 1.04002,-2.79993 3.52,-5.19999 6.87998,-5.19999 4.72003,0 6.95999,3.84003 6.95999,10.32006 v 21.51993 h 9.59998 V 92.33095 c 0,-12.47992 -6.55994,-16.88001 -12.95996,-16.88001 -3.27998,0 -5.76005,0.80008 -8.00001,2.32006 -1.76,1.11993 -3.35998,2.72001 -4.72003,4.87996 h -0.15992 c -1.68008,-4.31999 -5.68004,-7.20002 -10.80002,-7.20002 -6.64005,0 -10.16004,3.60001 -12.00005,6.64005 h -0.23994 l -0.48004,-5.76005 h -8.39996 c 0.15993,3.36007 0.31994,7.12001 0.31994,11.60001 v 27.35999 m 84.93252,0.88 c 9.84001,0 19.91996,-6.40002 19.91996,-20.71994 0,-11.84004 -7.75998,-20.00006 -19.35999,-20.00006 -11.75994,0 -20.15998,7.84008 -20.15998,20.64003 0,12.56002 8.56006,20.07997 19.52,20.07997 h 0.08 m 0.16002,-7.12 c -5.84006,0 -9.59999,-5.67995 -9.59999,-13.19999 0,-6.47994 2.80002,-13.28 9.76,-13.28 6.71997,0 9.43997,7.03999 9.43997,13.12007 0,7.91991 -3.92003,13.35992 -9.51997,13.35992 h -0.08 m 27.87626,6.24 h 9.84001 V 92.33095 c 0,-1.11993 0.16002,-2.31997 0.47996,-3.11996 1.04001,-2.96003 3.76002,-5.76004 7.67997,-5.76004 5.36,0 7.44004,4.24007 7.44004,9.84001 v 21.99998 h 9.84001 V 92.17102 c 0,-12.31999 -7.04,-16.72008 -13.83997,-16.72008 -6.48003,0 -10.72001,3.68002 -12.48001,6.72006 h -0.24002 l -0.48005,-5.84006 h -8.55997 c 0.16001,3.36007 0.32003,7.12001 0.32003,11.60001 v 27.35999 m 62.34373,0 h 9.84001 V 95.05096 c 0,-1.04002 0.08,-2.07995 0.24003,-2.95995 0.88,-4.48 4.15997,-7.44003 8.79999,-7.44003 1.19994,0 2.07994,0.08001 2.95994,0.24002 v -9.20003 c -0.79999,-0.16002 -1.35996,-0.24003 -2.31996,-0.24003 -4.23998,0 -8.8,2.80002 -10.72001,8.24003 h -0.24003 l -0.39995,-7.36003 h -8.48005 c 0.24002,3.43999 0.32003,7.28002 0.32003,12.56002 v 26.39998 m 61.47752,-16.71999 c 0.15993,-0.88 0.31994,-2.31996 0.31994,-4.15997 0,-8.55997 -4.15997,-18.96004 -16.8,-18.96004 -12.48,0 -19.03995,10.16005 -19.03995,20.96006 0,11.91996 7.43994,19.67994 20.07997,19.67994 5.60003,0 10.24005,-1.03993 13.60003,-2.47999 l -1.44005,-6.71996 c -3.03995,1.04002 -6.24001,1.76 -10.79993,1.76 -6.24001,0 -11.76003,-3.04004 -12.00005,-10.08004 h 26.08004 m -26.08004,-6.87998 c 0.40004,-3.99995 2.96003,-9.51997 9.04002,-9.51997 6.55994,0 8.16002,5.91997 8.08001,9.51997 h -17.12003 m 31.89,21.68005 c 2.88002,1.59998 7.12,2.71992 11.84001,2.71992 10.32002,0 15.84002,-5.11999 15.84002,-12.23999 -0.08,-5.75996 -3.28,-9.35996 -10.4,-11.83994 -4.96002,-1.84001 -6.80004,-2.96003 -6.80004,-5.44002 0,-2.39997 1.92002,-4.15997 5.44004,-4.15997 3.44,0 6.64,1.27995 8.24,2.23996 l 2,-6.87998 c -2.32,-1.28004 -6.08,-2.32006 -10.4,-2.32006 -9.03998,0 -14.72001,5.28009 -14.72001,12.16007 0,4.63993 3.12004,8.79999 10.71999,11.35998 4.80002,1.76 6.40002,3.03995 6.40002,5.67995 0,2.55999 -1.92,4.4 -6.24002,4.4 -3.51997,0 -7.76004,-1.51998 -9.91999,-2.87993 l -2.00002,7.20001 m 52.95753,2.79992 c 9.8399,0 19.92,-6.40002 19.92,-20.71994 0,-11.84004 -7.76,-20.00006 -19.36,-20.00006 -11.76,0 -20.16,7.84008 -20.16,20.64003 0,12.56002 8.56,20.07997 19.52,20.07997 h 0.08 m 0.1599,-7.12 c -5.8399,0 -9.5999,-5.67995 -9.5999,-13.19999 0,-6.47994 2.8,-13.28 9.76,-13.28 6.72,0 9.44,7.03999 9.44,13.12007 0,7.91991 -3.92,13.35992 -9.52,13.35992 h -0.08 m 27.8763,6.24 h 9.84 V 58.41101 h -9.84 v 56.87993 m 55.505,-38.96 h -9.84 v 23.52005 c 0,1.12003 -0.16,2.23996 -0.56,3.03995 -0.96,2.55999 -3.52,5.28 -7.52,5.28 -5.2,0 -7.2799,-4.15997 -7.2799,-10.64 v -21.2 h -9.84 v 22.88008 c 0,12.71994 6.48,16.95992 13.5199,16.95992 7.04,0 10.88,-3.99995 12.56,-6.71996 h 0.24 l 0.48,5.83996 h 8.5601 c -0.1601,-3.19996 -0.3201,-7.03999 -0.3201,-11.67992 V 76.33094 m 12.1887,-7.27993 v 7.27993 h -5.5199 v 7.36003 h 5.5199 v 18.23997 c 0,5.12007 0.96,8.72007 3.1201,10.96003 1.84,2.00002 4.8,3.19997 8.4799,3.19997 3.0401,0 5.6801,-0.47996 7.1201,-1.03993 l -0.1601,-7.44004 c -1.1199,0.32004 -2.0799,0.40004 -3.8399,0.40004 -3.76,0 -5.0401,-2.40006 -5.0401,-7.20001 V 83.69097 h 9.3601 v -7.36003 h -9.3601 v -9.99993 l -9.68,2.72 m 36.3651,46.23993 v -38.96 h -9.84 v 38.96 h 9.84 m -4.88,-44.55994 c 3.36,0 5.52,-2.40006 5.52,-5.27999 -0.08,-3.04004 -2.16,-5.36001 -5.52,-5.36001 -3.28,0 -5.52,2.31997 -5.52,5.36001 0,2.87993 2.16,5.27999 5.44,5.27999 h 0.08 m 32.6288,45.43994 c 9.8399,0 19.9199,-6.40002 19.9199,-20.71994 0,-11.84004 -7.76,-20.00006 -19.36,-20.00006 -11.76,0 -20.16,7.84008 -20.16,20.64003 0,12.56002 8.56,20.07997 19.5201,20.07997 h 0.08 m 0.1599,-7.12 c -5.84,0 -9.6,-5.67995 -9.6,-13.19999 0,-6.47994 2.8,-13.28 9.76,-13.28 6.72,0 9.44,7.03999 9.44,13.12007 0,7.91991 -3.92,13.35992 -9.52,13.35992 h -0.08 m 27.8762,6.24 h 9.8401 V 92.33095 c 0,-1.11993 0.16,-2.31997 0.48,-3.11996 1.0399,-2.96003 3.7599,-5.76004 7.68,-5.76004 5.36,0 7.4399,4.24007 7.4399,9.84001 v 21.99998 h 9.84 V 92.17102 c 0,-12.31999 -7.04,-16.72008 -13.8399,-16.72008 -6.4801,0 -10.72,3.68002 -12.48,6.72006 h -0.2401 l -0.4799,-5.84006 h -8.56 c 0.1599,3.36007 0.3199,7.12001 0.3199,11.60001 v 27.35999 m 43.3813,-1.91992 c 2.88,1.59998 7.12,2.71992 11.84,2.71992 10.32,0 15.84,-5.11999 15.84,-12.23999 -0.08,-5.75996 -3.28,-9.35996 -10.4,-11.83994 -4.96,-1.84001 -6.8,-2.96003 -6.8,-5.44002 0,-2.39997 1.92,-4.15997 5.44,-4.15997 3.44,0 6.64,1.27995 8.24,2.23996 l 2,-6.87998 c -2.32,-1.28004 -6.08,-2.32006 -10.4,-2.32006 -9.04,0 -14.72,5.28009 -14.72,12.16007 0,4.63993 3.12,8.79999 10.72,11.35998 4.8,1.76 6.4,3.03995 6.4,5.67995 0,2.55999 -1.92,4.4 -6.24,4.4 -3.52,0 -7.76,-1.51998 -9.92,-2.87993 l -2,7.20001 m 61.84,-53.52004 c -4.6399,6.48003 -9.68,16.88 -9.76,32.55998 0,15.44004 5.1201,25.92002 9.76,32.32004 h 7.12 c -5.04,-7.68006 -8.96,-18.16004 -8.96,-32.32004 0,-14.39994 3.84,-24.96002 8.96,-32.55998 h -7.12 m 14.6225,44.56003 c 0,3.91995 -0.16,8.23994 -0.32,10.87993 h 8.4 l 0.48,-5.83996 h 0.16 c 2.8,4.79995 7.28,6.71996 12.32,6.71996 8.8,0 17.68,-6.95998 17.68,-20.95997 0.08,-11.83994 -6.72,-19.76003 -16.24,-19.76003 -5.84,0 -10.08,2.48008 -12.48,6.24001 h -0.16 V 58.41101 h -9.84 v 46 m 9.84,-11.52 c 0,-0.96001 0.16,-1.84001 0.32,-2.55999 1.04,-4.31999 4.72,-7.20002 8.72,-7.20002 6.56,0 9.84,5.59994 9.84,12.48001 0,7.92 -3.76,12.79995 -9.92,12.79995 -4.24,0 -7.68,-2.88002 -8.72,-6.87998 -0.16,-0.71998 -0.24,-1.51997 -0.24,-2.31996 v -6.32001 m 32.395,-16.56007 14.32,35.76004 c 0.4001,0.96001 0.4801,1.51997 0.4801,1.92001 0,0.47996 -0.2401,1.04002 -0.5601,1.76 -1.36,2.64 -3.6,4.95997 -5.44,6.16 -1.9999,1.43997 -4,2.31996 -5.68,2.72001 l 2.24,8.23993 c 2.4,-0.31994 6.4,-1.59998 10.3201,-4.95996 4.5599,-3.99996 8.1599,-10.47999 13.5199,-25.04003 l 9.76,-26.56 h -10.48 l -6.08,20.80005 c -0.8,2.47998 -1.5199,5.44001 -2.08,7.59996 h -0.2399 c -0.5601,-2.15995 -1.4401,-5.11998 -2.2401,-7.51995 l -6.96,-20.88006 h -10.88 m 61.2025,54.79999 h 9.84 v -20.15998 h 0.1601 c 2,3.12005 6.0799,5.19999 10.96,5.19999 8.8799,0 17.7599,-6.79997 17.7599,-20.87996 0,-12.15998 -7.4399,-19.84004 -16.3999,-19.84004 -5.92,0 -10.48,2.48008 -13.3601,6.88007 h -0.16 l -0.4799,-6.00007 h -8.64 c 0.1599,3.68002 0.3199,7.84008 0.3199,12.96006 v 41.83993 m 9.84,-38.15992 c 0,-0.79999 0.1601,-1.68008 0.3201,-2.48007 1.04,-4.31999 4.7999,-7.27993 8.88,-7.27993 6.3199,0 9.68,5.59994 9.68,12.48001 0,7.67997 -3.68,12.87996 -9.92,12.87996 -4.24,0 -7.68,-2.88002 -8.72,-6.87998 -0.16,-0.88 -0.2401,-1.76 -0.2401,-2.72001 v -5.99998 m 46.875,22.31993 v -38.96 h -9.84 v 38.96 h 9.84 m -4.88,-44.55994 c 3.36,0 5.52,-2.40006 5.52,-5.27999 -0.08,-3.04004 -2.16,-5.36001 -5.52,-5.36001 -3.28,0 -5.52,2.31997 -5.52,5.36001 0,2.87993 2.1601,5.27999 5.44,5.27999 h 0.08 m 11.1087,5.59994 13.04,19.04005 -13.5199,19.91995 h 10.7999 l 4.56,-7.75998 c 1.2001,-2.15994 2.4,-4.15997 3.52,-6.40002 h 0.16 c 1.1201,2.16004 2.24,4.24008 3.52,6.32002 l 4.7201,7.83998 h 11.1999 l -13.28,-20.31999 13.04,-18.64001 h -10.72 l -4.32,7.20001 c -1.1999,2.00003 -2.24,4.00005 -3.44,6.16 h -0.16 c -1.1199,-1.99993 -2.24,-3.99996 -3.52,-5.99998 l -4.6399,-7.36003 h -10.9601 m 76.9713,22.24001 c 0.16,-0.88 0.32,-2.31996 0.32,-4.15997 0,-8.55997 -4.1599,-18.96004 -16.8,-18.96004 -12.48,0 -19.0399,10.16005 -19.0399,20.96006 0,11.91996 7.4399,19.67994 20.0799,19.67994 5.6,0 10.24,-1.03993 13.6,-2.47999 l -1.44,-6.71996 c -3.0399,1.04002 -6.24,1.76 -10.8,1.76 -6.24,0 -11.7599,-3.04004 -12,-10.08004 h 26.08 m -26.08,-6.87998 c 0.4,-3.99995 2.9601,-9.51997 9.0401,-9.51997 6.5599,0 8.1599,5.91997 8.08,9.51997 h -17.1201 m 34.29,23.59997 h 9.84 V 58.41101 h -9.84 v 56.87993 m 64.4675,-8.47996 c -1.92,0.79999 -4.4,1.51998 -7.76,1.51998 -6.72,0 -11.92,-4.56002 -11.92,-12.56002 -0.08,-7.11991 4.4,-12.63994 11.92,-12.63994 3.52,0 5.84,0.71999 7.44,1.51998 l 1.76,-7.44004 c -2.24,-0.95992 -5.92,-1.76 -9.52,-1.76 -13.68,0 -21.68,9.04002 -21.68,20.72004 0,12.07997 7.92,19.91996 20.08,19.91996 4.88,0 8.96,-1.03993 11.04,-1.99994 l -1.36,-7.28002 m 25.7775,9.35996 c 9.84,0 19.92,-6.40002 19.92,-20.71994 0,-11.84004 -7.7601,-20.00006 -19.36,-20.00006 -11.76,0 -20.16,7.84008 -20.16,20.64003 0,12.56002 8.56,20.07997 19.52,20.07997 h 0.08 m 0.16,-7.12 c -5.84,0 -9.6,-5.67995 -9.6,-13.19999 0,-6.47994 2.8,-13.28 9.76,-13.28 6.72,0 9.44,7.03999 9.44,13.12007 0,7.91991 -3.92,13.35992 -9.52,13.35992 h -0.08 m 62.7562,-32.72 h -9.8399 v 23.52005 c 0,1.12003 -0.16,2.23996 -0.5601,3.03995 -0.96,2.55999 -3.52,5.28 -7.5199,5.28 -5.2,0 -7.2801,-4.15997 -7.2801,-10.64 v -21.2 h -9.84 v 22.88008 c 0,12.71994 6.4801,16.95992 13.5201,16.95992 7.0399,0 10.88,-3.99995 12.56,-6.71996 h 0.2399 l 0.4801,5.83996 h 8.5599 c -0.16,-3.19996 -0.32,-7.03999 -0.32,-11.67992 V 76.33094 m 10.5888,38.96 h 9.84 V 92.33095 c 0,-1.11993 0.16,-2.31997 0.4801,-3.11996 1.0399,-2.96003 3.7599,-5.76004 7.6799,-5.76004 5.3601,0 7.4401,4.24007 7.4401,9.84001 v 21.99998 h 9.8399 V 92.17102 c 0,-12.31999 -7.04,-16.72008 -13.84,-16.72008 -6.48,0 -10.72,3.68002 -12.48,6.72006 h -0.24 l -0.48,-5.84006 h -8.5599 c 0.1599,3.36007 0.3199,7.12001 0.3199,11.60001 v 27.35999 m 47.3812,-46.23993 v 7.27993 h -5.52 v 7.36003 h 5.52 v 18.23997 c 0,5.12007 0.96,8.72007 3.12,10.96003 1.84,2.00002 4.8,3.19997 8.48,3.19997 3.04,0 5.68,-0.47996 7.12,-1.03993 l -0.16,-7.44004 c -1.12,0.32004 -2.08,0.40004 -3.84,0.40004 -3.76,0 -5.04,-2.40006 -5.04,-7.20001 V 83.69097 h 9.36 v -7.36003 h -9.36 v -9.99993 l -9.68,2.72 m 30.6051,55.67999 c 4.64,-6.56003 9.68,-16.88 9.76,-32.48006 0,-15.67997 -5.12,-26.07995 -9.76,-32.39996 h -7.12 c 5.04,7.67997 8.9599,18.16004 8.9599,32.39996 0,14.24001 -3.9199,24.88001 -8.9599,32.48006 h 7.12 M 592.10246,195.02509 h 6.43309 v -35.13871 h -5.51407 l -8.59547,4.21665 1.13525,5.02754 6.43309,-3.24358 h 0.10811 v 29.1381 m 22.98379,-17.62341 c 2.48674,0 4.10852,-1.83803 4.10852,-4.21665 0,-2.5408 -1.62178,-4.2707 -4.05446,-4.2707 -2.43268,0 -4.10853,1.78396 -4.10853,4.2707 0,2.37862 1.67585,4.21665 4.00041,4.21665 h 0.0541 m 0,18.21807 c 2.48674,0 4.10852,-1.83803 4.10852,-4.21665 0,-2.54079 -1.62178,-4.2707 -4.05446,-4.2707 -2.43268,0 -4.10853,1.78396 -4.10853,4.2707 0,2.37862 1.67585,4.21665 4.00041,4.21665 h 0.0541 m 18.72235,-0.59466 h 6.43309 v -35.13871 h -5.51408 l -8.59547,4.21665 1.13526,5.02754 6.43308,-3.24358 h 0.10812 v 29.1381 m 31.20246,0 h 6.59526 v -13.78518 c 0.91901,0.21624 2.00021,0.2703 3.24358,0.2703 4.70318,0 8.8117,-1.29743 11.51468,-3.94635 2.0002,-1.94615 3.0814,-4.75724 3.0814,-8.21705 0,-3.40576 -1.40555,-6.27091 -3.56793,-8.05488 -2.32457,-1.94614 -5.83844,-2.97327 -10.7038,-2.97327 -4.43288,0 -7.73051,0.32435 -10.16319,0.75683 v 35.9496 m 6.59526,-31.24642 c 0.70278,-0.16218 2.00021,-0.32436 3.83823,-0.32436 4.59506,0 7.40616,2.16239 7.40616,6.16279 0,4.21665 -3.02734,6.70339 -8.00081,6.70339 -1.35149,0 -2.37862,-0.0541 -3.24358,-0.32436 v -12.21746 m 42.46883,20.92105 3.29763,10.32537 h 7.13586 L 712.6696,158.58895 h -8.48735 l -11.67686,36.43614 h 6.86556 l 3.13545,-10.32537 h 11.56875 m -10.48755,-5.02754 2.81109,-8.97389 c 0.64872,-2.16238 1.18931,-4.70318 1.72991,-6.8115 h 0.10812 c 0.54059,2.10832 1.13525,4.59506 1.83802,6.8115 l 2.86516,8.97389 h -9.3523 m 26.04156,15.35291 h 6.59527 V 180.0506 h 3.35169 c 3.78417,0.10812 5.46002,1.62178 6.54121,6.37903 0.97307,4.541 1.89208,7.51427 2.43268,8.59546 h 6.8115 c -0.70277,-1.40554 -1.67584,-5.62219 -2.86515,-10.16319 -0.86496,-3.51387 -2.43268,-6.05467 -5.0816,-7.02774 v -0.16218 c 3.45981,-1.18931 6.64932,-4.37883 6.64932,-9.08201 0,-3.13545 -1.13525,-5.67625 -3.13545,-7.3521 -2.48674,-2.05426 -6.00061,-2.91921 -11.24439,-2.91921 -3.83823,0 -7.51428,0.32435 -10.05508,0.81089 v 35.89554 m 6.59527,-31.35454 c 0.64872,-0.16218 2.0002,-0.32436 4.10853,-0.32436 4.32476,0 7.0818,1.89209 7.0818,5.83844 0,3.62199 -2.75704,6.00061 -7.24398,6.00061 h -3.94635 v -11.51469"
         id="flowRoot4217" />
      <path
         style="fill:#775095;fill-opacity:1;stroke:#000000;stroke-width:2.5;stroke-miterlimit:4;stroke-opacity:1"
         d="m 1396.394,376.64693 h 717.7002 V 854.34717 H 1396.394 Z"
         id="rect4571" />
      <path
         style="font-style:normal;font-variant:normal;font-weight:normal;font-stretch:normal;font-size:4.43954802px;line-height:125%;font-family:'Myriad Pro';text-align:start;writing-mode:lr-tb;text-anchor:start"
         d="m 1382.9178,311.50734 h 2.92 v -12.72003 h 0.08 l 23,11.23997 v -3.60001 l -23.68,-11.31998 h -2.32 v 16.40005 m 26,-36.66688 h -2.92 v 11.64001 h -0.08 l -1.92,-2.04003 c -5.28,-5.48001 -9.16,-8.96001 -13.96,-8.96001 -3.72,0 -7.5599,2.35997 -7.5599,7.92 0,3.00003 1.1599,5.60003 2.64,7.36003 l 2.4799,-1.12003 c -1,-1.20003 -2.2,-3.15996 -2.2,-5.52002 0,-3.87994 2.4401,-5.11998 5.0801,-5.11998 3.9199,0 7.2799,3.04004 13.5999,9.67999 l 2.68,2.76001 h 2.16 v -16.59997 m 0.44,-12.26693 c 0,-5.67995 -4.88,-9.00001 -13.72,-9.00001 -8.28,0 -13.1599,3.16005 -13.1599,8.60006 0,5.28 4.7599,9.07993 13.5199,9.07993 8.6,-0.0799 13.36,-3.56 13.36,-8.63997 v -0.04 m -2.72,-0.12001 c 0,3.24006 -4.08,5.32 -10.8399,5.23999 -6.5201,0 -10.6001,-2.07994 -10.6001,-5.27999 0,-3.67993 4.2,-5.28 10.6001,-5.28 6.6399,0 10.8399,1.72008 10.8399,5.28 v 0.04"
         id="flowRoot4611" />
      <path
         id="flowRoot1968"
         d="m -595.86914,1003.1431 h -3.16406 v -20.16206 c -0.76173,0.72658 -1.76075,1.45314 -2.99707,2.17968 -1.23634,0.72658 -2.34669,1.2715 -3.33106,1.63477 v -3.05859 c 1.76953,-0.83202 3.3164,-1.83983 4.64063,-3.02344 1.32421,-1.18357 2.2617,-2.33201 2.8125,-3.44531 h 2.03906 z m 8.12109,-12.70894 c 0,-3.04686 0.31348,-5.499 0.94043,-7.35644 0.62695,-1.8574 1.55859,-3.29002 2.79492,-4.29786 1.23633,-1.00778 2.79199,-1.51169 4.667,-1.51171 1.3828,2e-5 2.59569,0.27834 3.63867,0.83496 1.04295,0.55666 1.90428,1.35939 2.58398,2.4082 0.67967,1.04885 1.21288,2.32619 1.59961,3.83203 0.3867,1.50588 0.58006,3.53615 0.58008,6.09082 -2e-5,3.02345 -0.31056,5.46388 -0.93164,7.32129 -0.62111,1.85743 -1.54982,3.29295 -2.78613,4.30665 -1.23634,1.0137 -2.79787,1.5205 -4.68457,1.5205 -2.48439,0 -4.43556,-0.8906 -5.85352,-2.6719 -1.69922,-2.1445 -2.54883,-5.63669 -2.54883,-10.47654 z m 3.25196,0 c -10e-6,4.23048 0.49511,7.0459 1.48535,8.44629 0.99022,1.40035 2.2119,2.10055 3.66504,2.10055 1.45311,0 2.67479,-0.7031 3.66504,-2.10934 0.99022,-1.40624 1.48533,-4.21874 1.48535,-8.4375 -2e-5,-4.24217 -0.49513,-7.06053 -1.48535,-8.45508 -0.99025,-1.39451 -2.22365,-2.09177 -3.7002,-2.09179 -1.45313,2e-5 -2.61329,0.61525 -3.48047,1.8457 -1.08985,1.57033 -1.63477,4.47072 -1.63476,8.70117 z m 21.65625,-1.26562 c -1.31251,-0.48046 -2.28516,-1.166 -2.91797,-2.05664 -0.63282,-0.89061 -0.94922,-1.95702 -0.94922,-3.19922 0,-1.87498 0.67382,-3.45115 2.02148,-4.72852 1.34765,-1.27732 3.14062,-1.91599 5.37891,-1.91601 2.24999,2e-5 4.06053,0.65334 5.43164,1.95996 1.37108,1.30666 2.05662,2.89748 2.05664,4.77246 -2e-5,1.19533 -0.31349,2.23537 -0.94043,3.12011 -0.62697,0.88478 -1.57912,1.5674 -2.85644,2.04786 1.58201,0.51563 2.78611,1.34766 3.6123,2.49609 0.82615,1.14845 1.23924,2.51954 1.23926,4.11328 -2e-5,2.20313 -0.77932,4.05469 -2.33789,5.55469 -1.55861,1.5 -3.60939,2.25 -6.15235,2.25 -2.54297,0 -4.59375,-0.7529 -6.15234,-2.2588 -1.5586,-1.50585 -2.33789,-3.38377 -2.33789,-5.63378 0,-1.67577 0.4248,-3.07909 1.27441,-4.20996 0.84961,-1.13085 2.05957,-1.90135 3.62989,-2.31152 z m -0.63282,-5.36133 c 0,1.21877 0.39258,2.21486 1.17774,2.98828 0.78515,0.77345 1.80468,1.16017 3.05859,1.16016 1.21874,10e-6 2.21776,-0.38378 2.99707,-1.15137 0.77929,-0.76756 1.16893,-1.70799 1.16895,-2.82129 -2e-5,-1.16014 -0.40138,-2.13572 -1.2041,-2.92676 -0.80275,-0.79099 -1.80177,-1.1865 -2.99707,-1.18652 -1.20704,2e-5 -2.209,0.38674 -3.00586,1.16015 -0.79688,0.77346 -1.19532,1.69924 -1.19532,2.77735 z m -1.01953,11.90039 c 0,0.90235 0.21386,1.77539 0.6416,2.61914 0.42773,0.84375 1.06347,1.49707 1.90723,1.95996 0.84374,0.4629 1.75194,0.6943 2.72461,0.6943 1.51171,0 2.75975,-0.4863 3.74414,-1.45895 0.98436,-0.97265 1.47655,-2.20898 1.47656,-3.70898 -10e-6,-1.52343 -0.50685,-2.7832 -1.5205,-3.7793 -1.01369,-0.99608 -2.28224,-1.49413 -3.80567,-1.49414 -1.48829,10e-6 -2.72169,0.4922 -3.70019,1.47656 -0.97852,0.98439 -1.46778,2.21485 -1.46778,3.69141 z m 16.82227,-5.27344 c 0,-3.04686 0.31347,-5.499 0.94043,-7.35644 0.62695,-1.8574 1.55859,-3.29002 2.79492,-4.29786 1.23632,-1.00778 2.79198,-1.51169 4.66699,-1.51171 1.3828,2e-5 2.59569,0.27834 3.63867,0.83496 1.04296,0.55666 1.90429,1.35939 2.58399,2.4082 0.67967,1.04885 1.21287,2.32619 1.59961,3.83203 0.3867,1.50588 0.58006,3.53615 0.58008,6.09082 -2e-5,3.02345 -0.31057,5.46388 -0.93165,7.32129 -0.62111,1.85743 -1.54982,3.29295 -2.78613,4.30665 -1.23634,1.0137 -2.79786,1.5205 -4.68457,1.5205 -2.48438,0 -4.43555,-0.8906 -5.85351,-2.6719 -1.69922,-2.1445 -2.54883,-5.63669 -2.54883,-10.47654 z m 3.25195,0 c 0,4.23048 0.49511,7.0459 1.48535,8.44629 0.99023,1.40035 2.21191,2.10055 3.66504,2.10055 1.45312,0 2.67479,-0.7031 3.66504,-2.10934 0.99022,-1.40624 1.48534,-4.21874 1.48535,-8.4375 -10e-6,-4.24217 -0.49513,-7.06053 -1.48535,-8.45508 -0.99025,-1.39451 -2.22364,-2.09177 -3.70019,-2.09179 -1.45314,2e-5 -2.61329,0.61525 -3.48047,1.8457 -1.08985,1.57033 -1.63477,4.47072 -1.63477,8.70117 z m 17.68359,-9.42187 v -3.63868 h 3.16407 v 3.63868 z m 0,22.13081 v -18.66792 h 3.16407 v 18.66792 z m 15.60938,0.4395 7.4707,-26.64844 h 2.53125 l -7.45312,26.64844 z m 33.38086,-0.4395 h -3.16406 v -20.16206 c -0.76173,0.72658 -1.76075,1.45314 -2.99707,2.17968 -1.23634,0.72658 -2.34669,1.2715 -3.33106,1.63477 v -3.05859 c 1.76953,-0.83202 3.3164,-1.83983 4.64063,-3.02344 1.32421,-1.18357 2.2617,-2.33201 2.8125,-3.44531 h 2.03906 z m 8.12109,-12.70894 c 0,-3.04686 0.31348,-5.499 0.94043,-7.35644 0.62695,-1.8574 1.55859,-3.29002 2.79492,-4.29786 1.23633,-1.00778 2.79199,-1.51169 4.667,-1.51171 1.3828,2e-5 2.59569,0.27834 3.63867,0.83496 1.04295,0.55666 1.90428,1.35939 2.58398,2.4082 0.67967,1.04885 1.21288,2.32619 1.59961,3.83203 0.3867,1.50588 0.58006,3.53615 0.58008,6.09082 -2e-5,3.02345 -0.31056,5.46388 -0.93164,7.32129 -0.62111,1.85743 -1.54982,3.29295 -2.78613,4.30665 -1.23634,1.0137 -2.79787,1.5205 -4.68457,1.5205 -2.48439,0 -4.43556,-0.8906 -5.85352,-2.6719 -1.69922,-2.1445 -2.54883,-5.63669 -2.54883,-10.47654 z m 3.25196,0 c -1e-5,4.23048 0.49511,7.0459 1.48535,8.44629 0.99022,1.40035 2.2119,2.10055 3.66504,2.10055 1.45311,0 2.67479,-0.7031 3.66504,-2.10934 0.99022,-1.40624 1.48533,-4.21874 1.48535,-8.4375 -2e-5,-4.24217 -0.49513,-7.06053 -1.48535,-8.45508 -0.99025,-1.39451 -2.22365,-2.09177 -3.7002,-2.09179 -1.45313,2e-5 -2.61329,0.61525 -3.48047,1.8457 -1.08985,1.57033 -1.63477,4.47072 -1.63476,8.70117 z m 21.65625,-1.26562 c -1.31251,-0.48046 -2.28516,-1.166 -2.91797,-2.05664 -0.63282,-0.89061 -0.94922,-1.95702 -0.94922,-3.19922 0,-1.87498 0.67382,-3.45115 2.02148,-4.72852 1.34765,-1.27732 3.14062,-1.91599 5.37891,-1.91601 2.24999,2e-5 4.06053,0.65334 5.43164,1.95996 1.37108,1.30666 2.05662,2.89748 2.05664,4.77246 -2e-5,1.19533 -0.31349,2.23537 -0.94043,3.12011 -0.62697,0.88478 -1.57912,1.5674 -2.85644,2.04786 1.58201,0.51563 2.78611,1.34766 3.6123,2.49609 0.82615,1.14845 1.23924,2.51954 1.23926,4.11328 -2e-5,2.20313 -0.77932,4.05469 -2.33789,5.55469 -1.55861,1.5 -3.60939,2.25 -6.15235,2.25 -2.54297,0 -4.59375,-0.7529 -6.15234,-2.2588 -1.5586,-1.50585 -2.33789,-3.38377 -2.33789,-5.63378 0,-1.67577 0.4248,-3.07909 1.27441,-4.20996 0.84961,-1.13085 2.05957,-1.90135 3.62989,-2.31152 z m -0.63282,-5.36133 c 0,1.21877 0.39258,2.21486 1.17774,2.98828 0.78515,0.77345 1.80468,1.16017 3.05859,1.16016 1.21874,10e-6 2.21776,-0.38378 2.99707,-1.15137 0.77929,-0.76756 1.16893,-1.70799 1.16895,-2.82129 -2e-5,-1.16014 -0.40138,-2.13572 -1.2041,-2.92676 -0.80275,-0.79099 -1.80177,-1.1865 -2.99707,-1.18652 -1.20704,2e-5 -2.209,0.38674 -3.00586,1.16015 -0.79688,0.77346 -1.19532,1.69924 -1.19532,2.77735 z m -1.01953,11.90039 c 0,0.90235 0.21386,1.77539 0.6416,2.61914 0.42773,0.84375 1.06347,1.49707 1.90723,1.95996 0.84374,0.4629 1.75194,0.6943 2.72461,0.6943 1.51171,0 2.75975,-0.4863 3.74414,-1.45895 0.98436,-0.97265 1.47655,-2.20898 1.47656,-3.70898 -1e-5,-1.52343 -0.50685,-2.7832 -1.5205,-3.7793 -1.01369,-0.99608 -2.28224,-1.49413 -3.80567,-1.49414 -1.48829,10e-6 -2.72169,0.4922 -3.70019,1.47656 -0.97852,0.98439 -1.46778,2.21485 -1.46778,3.69141 z m 16.82227,-5.27344 c 0,-3.04686 0.31347,-5.499 0.94043,-7.35644 0.62695,-1.8574 1.55859,-3.29002 2.79492,-4.29786 1.23632,-1.00778 2.79198,-1.51169 4.66699,-1.51171 1.3828,2e-5 2.59569,0.27834 3.63867,0.83496 1.04296,0.55666 1.90429,1.35939 2.58399,2.4082 0.67967,1.04885 1.21287,2.32619 1.59961,3.83203 0.3867,1.50588 0.58006,3.53615 0.58008,6.09082 -2e-5,3.02345 -0.31057,5.46388 -0.93165,7.32129 -0.62111,1.85743 -1.54982,3.29295 -2.78613,4.30665 -1.23634,1.0137 -2.79786,1.5205 -4.68457,1.5205 -2.48438,0 -4.43555,-0.8906 -5.85351,-2.6719 -1.69922,-2.1445 -2.54883,-5.63669 -2.54883,-10.47654 z m 3.25195,0 c 0,4.23048 0.49511,7.0459 1.48535,8.44629 0.99023,1.40035 2.21191,2.10055 3.66504,2.10055 1.45312,0 2.67479,-0.7031 3.66504,-2.10934 0.99022,-1.40624 1.48534,-4.21874 1.48535,-8.4375 -1e-5,-4.24217 -0.49513,-7.06053 -1.48535,-8.45508 -0.99025,-1.39451 -2.22364,-2.09177 -3.70019,-2.09179 -1.45314,2e-5 -2.61329,0.61525 -3.48047,1.8457 -1.08985,1.57033 -1.63477,4.47072 -1.63477,8.70117 z m 17.66602,19.86324 v -25.82222 h 2.88281 v 2.42578 c 0.67968,-0.9492 1.44726,-1.66112 2.30273,-2.13574 0.85546,-0.4746 1.89257,-0.7119 3.11133,-0.71192 1.59374,2e-5 2.99999,0.41018 4.21875,1.23047 1.21874,0.82033 2.13866,1.97756 2.75977,3.47168 0.62107,1.49415 0.93162,3.13185 0.93164,4.91309 -2e-5,1.91016 -0.34279,3.62988 -1.02832,5.15918 -0.68557,1.52928 -1.68166,2.70118 -2.98828,3.51558 -1.30666,0.8145 -2.68068,1.2217 -4.12207,1.2217 -1.0547,0 -2.00099,-0.2226 -2.83887,-0.6679 -0.8379,-0.4454 -1.52637,-1.0079 -2.06543,-1.6875 v 9.0878 z m 2.86523,-16.38277 c 0,2.40235 0.48632,4.17774 1.45899,5.32617 0.97264,1.1484 2.15038,1.7227 3.5332,1.7227 1.40624,0 2.61034,-0.5948 3.6123,-1.78422 1.00194,-1.18945 1.50292,-3.03222 1.50293,-5.52832 -1e-5,-2.3789 -0.48927,-4.16014 -1.46777,-5.34375 -0.97853,-1.18358 -2.14747,-1.77538 -3.50684,-1.77539 -1.34766,10e-6 -2.54004,0.6299 -3.57714,1.88965 -1.03712,1.25977 -1.55567,3.09083 -1.55567,5.49316 z"
         style="font-size:36px"
         transform="translate(816,425.143)" />
      <path
         id="flowRoot1931"
         d="M 1441.6982,822.76134 V 796.9918 h 8.8769 c 2.0039,3e-5 3.5332,0.12308 4.5879,0.36914 1.4766,0.33987 2.7363,0.95511 3.7793,1.84571 1.3594,1.14846 2.376,2.61623 3.0498,4.40332 0.6738,1.78712 1.0108,3.82911 1.0108,6.12597 0,1.95705 -0.2286,3.69142 -0.6856,5.20313 -0.457,1.51172 -1.043,2.7627 -1.7578,3.75293 -0.7148,0.99024 -1.4971,1.76953 -2.3467,2.33789 -0.8496,0.56836 -1.875,0.99902 -3.0761,1.29199 -1.2012,0.29297 -2.5811,0.43946 -4.1397,0.43946 z m 3.4102,-3.04102 h 5.5019 c 1.6992,0 3.0322,-0.1582 3.999,-0.47461 0.9668,-0.3164 1.7373,-0.76171 2.3116,-1.33594 0.8085,-0.80859 1.4384,-1.8955 1.8896,-3.26074 0.4511,-1.36522 0.6767,-3.0205 0.6768,-4.96582 -10e-5,-2.6953 -0.4424,-4.76658 -1.3272,-6.21387 -0.8848,-1.44724 -1.96,-2.41697 -3.2256,-2.90918 -0.9141,-0.35154 -2.3848,-0.52732 -4.4121,-0.52734 h -5.414 z m 29.9707,3.04102 -9.9844,-25.76954 h 3.6914 l 6.6973,18.72071 c 0.539,1.5 0.9902,2.90625 1.3535,4.21875 0.3984,-1.40625 0.8613,-2.8125 1.3886,-4.21875 l 6.961,-18.72071 h 3.4804 l -10.0898,25.76954 z m 23.8886,0.43945 7.4707,-26.64844 h 2.5313 l -7.4531,26.64844 z m 31.6055,-0.43945 v -6.16993 h -11.1797 v -2.90039 l 11.7598,-16.69922 h 2.584 v 16.69922 h 3.4804 v 2.90039 h -3.4804 v 6.16993 z m 0,-9.07032 v -11.61914 l -8.0684,11.61914 z m 14.7656,-4.90429 c -1.3125,-0.48046 -2.2851,-1.166 -2.9179,-2.05664 -0.6329,-0.89061 -0.9493,-1.95702 -0.9493,-3.19922 0,-1.87498 0.6739,-3.45115 2.0215,-4.72852 1.3477,-1.27732 3.1406,-1.91599 5.3789,-1.91601 2.25,2e-5 4.0606,0.65334 5.4317,1.95996 1.371,1.30666 2.0566,2.89748 2.0566,4.77246 0,1.19533 -0.3135,2.23537 -0.9404,3.12011 -0.627,0.88478 -1.5791,1.5674 -2.8565,2.04786 1.582,0.51563 2.7861,1.34766 3.6123,2.49609 0.8262,1.14845 1.2393,2.51954 1.2393,4.11328 0,2.20313 -0.7793,4.05469 -2.3379,5.55469 -1.5586,1.5 -3.6094,2.25 -6.1523,2.25 -2.543,0 -4.5938,-0.75293 -6.1524,-2.25879 -1.5586,-1.50586 -2.3379,-3.38378 -2.3379,-5.63379 0,-1.67577 0.4248,-3.07909 1.2744,-4.20996 0.8496,-1.13085 2.0596,-1.90135 3.6299,-2.31152 z m -0.6328,-5.36133 c 0,1.21877 0.3926,2.21486 1.1777,2.98828 0.7852,0.77345 1.8047,1.16017 3.0586,1.16016 1.2188,10e-6 2.2178,-0.38378 2.9971,-1.15137 0.7793,-0.76756 1.1689,-1.70799 1.169,-2.82129 -10e-5,-1.16014 -0.4014,-2.13572 -1.2042,-2.92676 -0.8027,-0.79099 -1.8017,-1.1865 -2.997,-1.18652 -1.2071,2e-5 -2.209,0.38674 -3.0059,1.16015 -0.7969,0.77346 -1.1953,1.69924 -1.1953,2.77735 z m -1.0195,11.90039 c 0,0.90235 0.2138,1.77539 0.6416,2.61914 0.4277,0.84375 1.0634,1.49707 1.9072,1.95996 0.8437,0.46289 1.7519,0.69434 2.7246,0.69434 1.5117,0 2.7598,-0.48633 3.7442,-1.45899 0.9843,-0.97265 1.4765,-2.20898 1.4765,-3.70898 0,-1.52343 -0.5068,-2.7832 -1.5205,-3.7793 -1.0137,-0.99608 -2.2822,-1.49413 -3.8057,-1.49414 -1.4882,10e-6 -2.7216,0.4922 -3.7002,1.47656 -0.9785,0.98439 -1.4677,2.21485 -1.4677,3.69141 z m 16.8222,-5.27344 c 0,-3.04686 0.3135,-5.499 0.9405,-7.35644 0.6269,-1.8574 1.5586,-3.29002 2.7949,-4.29786 1.2363,-1.00778 2.792,-1.51169 4.667,-1.51171 1.3828,2e-5 2.5957,0.27834 3.6387,0.83496 1.0429,0.55666 1.9042,1.35939 2.5839,2.4082 0.6797,1.04885 1.2129,2.32619 1.5997,3.83203 0.3867,1.50588 0.58,3.53615 0.58,6.09082 0,3.02345 -0.3105,5.46388 -0.9316,7.32129 -0.6211,1.85743 -1.5498,3.29297 -2.7861,4.30664 -1.2364,1.01367 -2.7979,1.52051 -4.6846,1.52051 -2.4844,0 -4.4356,-0.89063 -5.8535,-2.67188 -1.6993,-2.14452 -2.5489,-5.63671 -2.5489,-10.47656 z m 3.252,0 c 0,4.23048 0.4951,7.0459 1.4853,8.44629 0.9903,1.40039 2.212,2.10059 3.6651,2.10059 1.4531,0 2.6748,-0.70313 3.665,-2.10938 0.9902,-1.40624 1.4854,-4.21874 1.4854,-8.4375 0,-4.24217 -0.4952,-7.06053 -1.4854,-8.45508 -0.9902,-1.39451 -2.2236,-2.09177 -3.7002,-2.09179 -1.4531,2e-5 -2.6133,0.61525 -3.4804,1.8457 -1.0899,1.57033 -1.6348,4.47072 -1.6348,8.70117 z m 17.6836,-9.42187 v -3.63868 h 3.1641 v 3.63868 z m 0,22.13086 v -18.66797 h 3.1641 v 18.66797 z m 15.6094,0.43945 7.4707,-26.64844 h 2.5312 l -7.4531,26.64844 z m 31.6054,-0.43945 v -6.16993 h -11.1797 v -2.90039 l 11.7598,-16.69922 h 2.584 v 16.69922 h 3.4805 v 2.90039 h -3.4805 v 6.16993 z m 0,-9.07032 v -11.61914 l -8.0683,11.61914 z m 14.7657,-4.90429 c -1.3125,-0.48046 -2.2852,-1.166 -2.918,-2.05664 -0.6328,-0.89061 -0.9492,-1.95702 -0.9492,-3.19922 0,-1.87498 0.6738,-3.45115 2.0215,-4.72852 1.3476,-1.27732 3.1406,-1.91599 5.3789,-1.91601 2.2499,2e-5 4.0605,0.65334 5.4316,1.95996 1.3711,1.30666 2.0566,2.89748 2.0566,4.77246 0,1.19533 -0.3135,2.23537 -0.9404,3.12011 -0.627,0.88478 -1.5791,1.5674 -2.8564,2.04786 1.582,0.51563 2.7861,1.34766 3.6123,2.49609 0.8261,1.14845 1.2392,2.51954 1.2392,4.11328 0,2.20313 -0.7793,4.05469 -2.3379,5.55469 -1.5586,1.5 -3.6093,2.25 -6.1523,2.25 -2.543,0 -4.5938,-0.75293 -6.1523,-2.25879 -1.5586,-1.50586 -2.3379,-3.38378 -2.3379,-5.63379 0,-1.67577 0.4248,-3.07909 1.2744,-4.20996 0.8496,-1.13085 2.0595,-1.90135 3.6299,-2.31152 z m -0.6329,-5.36133 c 0,1.21877 0.3926,2.21486 1.1778,2.98828 0.7851,0.77345 1.8047,1.16017 3.0586,1.16016 1.2187,10e-6 2.2177,-0.38378 2.997,-1.15137 0.7793,-0.76756 1.169,-1.70799 1.169,-2.82129 0,-1.16014 -0.4014,-2.13572 -1.2041,-2.92676 -0.8028,-0.79099 -1.8018,-1.1865 -2.9971,-1.18652 -1.207,2e-5 -2.209,0.38674 -3.0058,1.16015 -0.7969,0.77346 -1.1954,1.69924 -1.1954,2.77735 z m -1.0195,11.90039 c 0,0.90235 0.2139,1.77539 0.6416,2.61914 0.4277,0.84375 1.0635,1.49707 1.9072,1.95996 0.8438,0.46289 1.752,0.69434 2.7247,0.69434 1.5117,0 2.7597,-0.48633 3.7441,-1.45899 0.9844,-0.97265 1.4765,-2.20898 1.4766,-3.70898 -10e-5,-1.52343 -0.5069,-2.7832 -1.5206,-3.7793 -1.0136,-0.99608 -2.2822,-1.49413 -3.8056,-1.49414 -1.4883,10e-6 -2.7217,0.4922 -3.7002,1.47656 -0.9785,0.98439 -1.4678,2.21485 -1.4678,3.69141 z m 16.8223,-5.27344 c 0,-3.04686 0.3135,-5.499 0.9404,-7.35644 0.627,-1.8574 1.5586,-3.29002 2.7949,-4.29786 1.2364,-1.00778 2.792,-1.51169 4.667,-1.51171 1.3828,2e-5 2.5957,0.27834 3.6387,0.83496 1.0429,0.55666 1.9043,1.35939 2.584,2.4082 0.6796,1.04885 1.2129,2.32619 1.5996,3.83203 0.3867,1.50588 0.58,3.53615 0.5801,6.09082 -10e-5,3.02345 -0.3106,5.46388 -0.9317,7.32129 -0.6211,1.85743 -1.5498,3.29297 -2.7861,4.30664 -1.2363,1.01367 -2.7979,1.52051 -4.6846,1.52051 -2.4844,0 -4.4355,-0.89063 -5.8535,-2.67188 -1.6992,-2.14452 -2.5488,-5.63671 -2.5488,-10.47656 z m 3.2519,0 c 0,4.23048 0.4951,7.0459 1.4854,8.44629 0.9902,1.40039 2.2119,2.10059 3.665,2.10059 1.4531,0 2.6748,-0.70313 3.6651,-2.10938 0.9902,-1.40624 1.4853,-4.21874 1.4853,-8.4375 0,-4.24217 -0.4951,-7.06053 -1.4853,-8.45508 -0.9903,-1.39451 -2.2237,-2.09177 -3.7002,-2.09179 -1.4532,2e-5 -2.6133,0.61525 -3.4805,1.8457 -1.0899,1.57033 -1.6348,4.47072 -1.6348,8.70117 z m 17.666,19.86328 v -25.82226 h 2.8829 v 2.42578 c 0.6796,-0.9492 1.4472,-1.66112 2.3027,-2.13574 0.8555,-0.4746 1.8926,-0.7119 3.1113,-0.71192 1.5938,2e-5 3,0.41018 4.2188,1.23047 1.2187,0.82033 2.1386,1.97756 2.7597,3.47168 0.6211,1.49415 0.9317,3.13185 0.9317,4.91309 0,1.91016 -0.3428,3.62988 -1.0283,5.15918 -0.6856,1.5293 -1.6817,2.70117 -2.9883,3.51562 -1.3067,0.81445 -2.6807,1.22168 -4.1221,1.22168 -1.0547,0 -2.001,-0.22266 -2.8389,-0.66797 -0.8379,-0.44531 -1.5263,-1.00781 -2.0654,-1.6875 v 9.08789 z m 2.8653,-16.38281 c 0,2.40235 0.4863,4.17774 1.459,5.32617 0.9726,1.14844 2.1503,1.72266 3.5332,1.72266 1.4062,0 2.6103,-0.59473 3.6123,-1.78418 1.0019,-1.18945 1.5029,-3.03222 1.5029,-5.52832 0,-2.3789 -0.4893,-4.16014 -1.4678,-5.34375 -0.9785,-1.18358 -2.1474,-1.77538 -3.5068,-1.77539 -1.3477,1e-5 -2.5401,0.6299 -3.5772,1.88965 -1.0371,1.25977 -1.5556,3.09083 -1.5556,5.49316 z"
         style="font-style:normal;font-variant:normal;font-weight:normal;font-stretch:normal;font-size:36px;line-height:125%;font-family:Arial;text-align:start;writing-mode:lr-tb;text-anchor:start" />
      <path
         id="flowRoot1940"
         d="m 1263.1191,862.64315 3.3223,-0.28125 c 0.2461,1.61719 0.8174,2.83301 1.7139,3.64746 0.8965,0.81445 1.9775,1.22168 3.2431,1.22168 1.5235,0 2.8125,-0.57422 3.8672,-1.72266 1.0547,-1.14843 1.582,-2.67187 1.5821,-4.57031 -10e-5,-1.80468 -0.5069,-3.22851 -1.5206,-4.27149 -1.0136,-1.04295 -2.3408,-1.56444 -3.9814,-1.56445 -1.0195,10e-6 -1.9395,0.23146 -2.7598,0.69434 -0.8203,0.4629 -1.4648,1.06348 -1.9336,1.80175 l -2.9707,-0.38672 2.4961,-13.23632 h 12.8145 v 3.02343 h -10.2832 l -1.3887,6.92579 c 1.5469,-1.07811 3.1699,-1.61718 4.8692,-1.61719 2.2499,10e-6 4.1484,0.77931 5.6953,2.33789 1.5468,1.55861 2.3203,3.56251 2.3203,6.01172 0,2.33203 -0.6797,4.34766 -2.0391,6.04687 -1.6523,2.08594 -3.9082,3.12891 -6.7676,3.12891 -2.3437,0 -4.2568,-0.65625 -5.7392,-1.96875 -1.4824,-1.3125 -2.3291,-3.05273 -2.5401,-5.2207 z m 20.25,-15.64454 v -3.04101 h 16.6817 v 2.46094 c -1.6407,1.74611 -3.2666,4.06642 -4.8779,6.96093 -1.6114,2.89455 -2.8565,5.87111 -3.7354,8.92969 -0.6328,2.15626 -1.0371,4.51758 -1.2129,7.08399 h -3.2519 c 0.035,-2.02735 0.4335,-4.47656 1.1953,-7.34766 0.7617,-2.87108 1.8545,-5.63964 3.2783,-8.30567 1.4238,-2.66599 2.9385,-4.91306 4.5439,-6.74121 z m 36.2461,2.93555 -3.1464,0.24609 c -0.2813,-1.24216 -0.6798,-2.14451 -1.1954,-2.70703 -0.8554,-0.90232 -1.9101,-1.35349 -3.164,-1.35351 -1.0078,2e-5 -1.8926,0.28127 -2.6543,0.84375 -0.9961,0.72658 -1.7813,1.78713 -2.3555,3.18164 -0.5742,1.39455 -0.873,3.38087 -0.8965,5.95898 0.7617,-1.16014 1.6934,-2.02147 2.7949,-2.58398 1.1016,-0.56249 2.2559,-0.84373 3.4629,-0.84375 2.1094,2e-5 3.9053,0.77638 5.3877,2.3291 1.4824,1.55275 2.2236,3.55958 2.2237,6.02051 -10e-5,1.61719 -0.3487,3.12012 -1.0459,4.50879 -0.6973,1.38867 -1.6553,2.45215 -2.8741,3.19043 -1.2187,0.73828 -2.6015,1.10742 -4.1484,1.10742 -2.6367,0 -4.7871,-0.96973 -6.4512,-2.90918 -1.664,-1.93945 -2.4961,-5.13574 -2.4961,-9.58887 0,-4.98045 0.92,-8.60154 2.7598,-10.86328 1.6055,-1.96872 3.7676,-2.9531 6.4863,-2.95312 2.0274,2e-5 3.6885,0.56838 4.9834,1.70507 1.2949,1.13675 2.0713,2.70706 2.3291,4.71094 z m -12.9199,11.10938 c 0,1.08985 0.2315,2.13281 0.6943,3.1289 0.4629,0.9961 1.1104,1.75489 1.9424,2.27637 0.8321,0.52149 1.7051,0.78223 2.6192,0.78223 1.3359,0 2.4843,-0.53906 3.4453,-1.61719 0.9609,-1.07812 1.4414,-2.54296 1.4414,-4.39453 0,-1.78124 -0.4746,-3.18456 -1.4238,-4.20996 -0.9493,-1.02538 -2.1446,-1.53808 -3.586,-1.53809 -1.4297,10e-6 -2.6426,0.51271 -3.6386,1.53809 -0.9961,1.0254 -1.4942,2.37012 -1.4942,4.03418 z m 17.4375,-13.78125 v -3.63868 h 3.1641 v 3.63868 z m 0,22.13086 v -18.66797 h 3.1641 v 18.66797 z m 15.6094,0.43945 7.4707,-26.64844 h 2.5312 l -7.4531,26.64844 z m 21.4629,-7.18945 3.3222,-0.28125 c 0.2461,1.61719 0.8174,2.83301 1.7139,3.64746 0.8965,0.81445 1.9775,1.22168 3.2432,1.22168 1.5234,0 2.8125,-0.57422 3.8672,-1.72266 1.0546,-1.14843 1.582,-2.67187 1.582,-4.57031 0,-1.80468 -0.5069,-3.22851 -1.5205,-4.27149 -1.0137,-1.04295 -2.3408,-1.56444 -3.9815,-1.56445 -1.0195,10e-6 -1.9394,0.23146 -2.7597,0.69434 -0.8203,0.4629 -1.4649,1.06348 -1.9336,1.80175 l -2.9707,-0.38672 2.4961,-13.23632 h 12.8144 v 3.02343 h -10.2832 l -1.3886,6.92579 c 1.5468,-1.07811 3.1699,-1.61718 4.8691,-1.61719 2.25,10e-6 4.1484,0.77931 5.6953,2.33789 1.5469,1.55861 2.3203,3.56251 2.3203,6.01172 0,2.33203 -0.6797,4.34766 -2.039,6.04687 -1.6524,2.08594 -3.9083,3.12891 -6.7676,3.12891 -2.3438,0 -4.2569,-0.65625 -5.7393,-1.96875 -1.4824,-1.3125 -2.3291,-3.05273 -2.54,-5.2207 z m 20.25,-15.64454 v -3.04101 h 16.6816 v 2.46094 c -1.6406,1.74611 -3.2666,4.06642 -4.8779,6.96093 -1.6114,2.89455 -2.8565,5.87111 -3.7354,8.92969 -0.6328,2.15626 -1.0371,4.51758 -1.2129,7.08399 h -3.2519 c 0.035,-2.02735 0.4336,-4.47656 1.1953,-7.34766 0.7617,-2.87108 1.8545,-5.63964 3.2783,-8.30567 1.4238,-2.66599 2.9385,-4.91306 4.544,-6.74121 z m 36.2461,2.93555 -3.1465,0.24609 c -0.2813,-1.24216 -0.6797,-2.14451 -1.1953,-2.70703 -0.8555,-0.90232 -1.9102,-1.35349 -3.1641,-1.35351 -1.0078,2e-5 -1.8926,0.28127 -2.6543,0.84375 -0.9961,0.72658 -1.7812,1.78713 -2.3555,3.18164 -0.5742,1.39455 -0.873,3.38087 -0.8964,5.95898 0.7617,-1.16014 1.6933,-2.02147 2.7949,-2.58398 1.1015,-0.56249 2.2558,-0.84373 3.4629,-0.84375 2.1093,2e-5 3.9052,0.77638 5.3877,2.3291 1.4824,1.55275 2.2236,3.55958 2.2236,6.02051 0,1.61719 -0.3486,3.12012 -1.0459,4.50879 -0.6973,1.38867 -1.6553,2.45215 -2.874,3.19043 -1.2188,0.73828 -2.6016,1.10742 -4.1485,1.10742 -2.6367,0 -4.7871,-0.96973 -6.4511,-2.90918 -1.6641,-1.93945 -2.4961,-5.13574 -2.4961,-9.58887 0,-4.98045 0.9199,-8.60154 2.7597,-10.86328 1.6055,-1.96872 3.7676,-2.9531 6.4864,-2.95312 2.0273,2e-5 3.6884,0.56838 4.9834,1.70507 1.2949,1.13675 2.0712,2.70706 2.3291,4.71094 z m -12.9199,11.10938 c -1e-4,1.08985 0.2314,2.13281 0.6943,3.1289 0.4629,0.9961 1.1103,1.75489 1.9424,2.27637 0.832,0.52149 1.705,0.78223 2.6191,0.78223 1.3359,0 2.4844,-0.53906 3.4453,-1.61719 0.9609,-1.07812 1.4414,-2.54296 1.4414,-4.39453 0,-1.78124 -0.4746,-3.18456 -1.4238,-4.20996 -0.9492,-1.02538 -2.1445,-1.53808 -3.5859,-1.53809 -1.4297,10e-6 -2.6426,0.51271 -3.6387,1.53809 -0.9961,1.0254 -1.4942,2.37012 -1.4941,4.03418 z m 17.4199,15.5039 v -25.82226 h 2.8828 v 2.42578 c 0.6797,-0.9492 1.4472,-1.66112 2.3027,-2.13574 0.8555,-0.4746 1.8926,-0.7119 3.1113,-0.71192 1.5938,2e-5 3,0.41018 4.2188,1.23047 1.2187,0.82033 2.1387,1.97756 2.7598,3.47168 0.621,1.49415 0.9316,3.13185 0.9316,4.91309 0,1.91016 -0.3428,3.62988 -1.0283,5.15918 -0.6856,1.5293 -1.6817,2.70117 -2.9883,3.51562 -1.3067,0.81445 -2.6807,1.22168 -4.1221,1.22168 -1.0547,0 -2.001,-0.22266 -2.8388,-0.66797 -0.8379,-0.44531 -1.5264,-1.00781 -2.0655,-1.6875 v 9.08789 z m 2.8652,-16.38281 c 0,2.40235 0.4863,4.17774 1.459,5.32617 0.9726,1.14844 2.1504,1.72266 3.5332,1.72266 1.4062,0 2.6103,-0.59473 3.6123,-1.78418 1.0019,-1.18945 1.5029,-3.03222 1.5029,-5.52832 0,-2.3789 -0.4892,-4.16014 -1.4677,-5.34375 -0.9786,-1.18358 -2.1475,-1.77538 -3.5069,-1.77539 -1.3476,10e-6 -2.54,0.6299 -3.5771,1.88965 -1.0371,1.25977 -1.5557,3.09083 -1.5557,5.49316 z"
         style="font-style:normal;font-variant:normal;font-weight:normal;font-stretch:normal;font-size:36px;line-height:125%;font-family:Arial;text-align:start;writing-mode:lr-tb;text-anchor:start"
         transform="translate(178,48)" />
      <path
         style="fill:none;fill-opacity:0.75;fill-rule:evenodd;stroke:#000000;stroke-width:2.5;stroke-linecap:butt;stroke-linejoin:miter;stroke-miterlimit:4;stroke-opacity:1"
         d="m 1396.727,325.61383 v 49.1189"
         id="path1949" />
    </g>
  </g>
</svg>
